# xmcd
#
# Track frame offsets:
#	150
#	19509
#	36737
#	51670
#	74789
#	90486
#	105698
#	121939
#	143271
#	166905
#	185584
#	204823
#
# Disc length: 2942 seconds
#
# Revision: 0
# Processed by: cddbd v1.5.2PL0 Copyright (c) Steve Scherf et al.
# Submitted via: audiograbber 1.83.01
#
DISCID=a60b7c0c
DTITLE=Ed Pettersen - The New Punk Blues Of Ed Pettersen
DYEAR=2007
DGENRE=Country
TTITLE0=Gather The Family 'Round
TTITLE1=Jimmy Parker
TTITLE2=Tabitha
TTITLE3=Burning Up
TTITLE4=Been There Before
TTITLE5=Chelsea
TTITLE6=Magic Glasses
TTITLE7=June 1945
TTITLE8=I'm Not Coming Down
TTITLE9=$500 Car
TTITLE10=Top Ten
TTITLE11=Baghdad
EXTD=
EXTT0=
EXTT1=
EXTT2=
EXTT3=
EXTT4=
EXTT5=
EXTT6=
EXTT7=
EXTT8=
EXTT9=
EXTT10=
EXTT11=
PLAYORDER=
